# xmcd CD database file
# Copyright (C) 1996 Ti Kan
#
# Track frame offsets:
#	150
#	18480
#	38257
#	56242
#
# Disc length: 981 seconds
#
# Revision: 1
# Processed by: cddbd v1.4b41PL1 Copyright (c) Steve Scherf et al.
# Submitted via: EasyCD 2.21 - (C) 1996 Greg Leichner
#
DISCID=2803d304
DTITLE=john andrew parks - john andrew parks (promo)
DYEAR=1900
DGENRE=
TTITLE0=Ten Gallon Dreams
TTITLE1=The Way I Feel
TTITLE2=Do A Little Dance
TTITLE3=Veronica
EXTD=
EXTT0=
EXTT1=
EXTT2=
EXTT3=
PLAYORDER=
